<?xml version="1.0" standalone="no"?>
<!DOCTYPE svg PUBLIC "-//W3C//DTD SVG 20010904//EN"
 "http://www.w3.org/TR/2001/REC-SVG-20010904/DTD/svg10.dtd">
<svg version="1.0" xmlns="http://www.w3.org/2000/svg"
 width="50.000000pt" height="56.000000pt" viewBox="0 0 50.000000 56.000000"
 preserveAspectRatio="xMidYMid meet">
<metadata>
Created by potrace 1.10, written by Peter Selinger 2001-2011
</metadata>
<g transform="translate(0.000000,56.000000) scale(0.100000,-0.100000)"
fill="#000000" stroke="none">
<path d="M0 280 l0 -280 250 0 250 0 0 280 0 280 -250 0 -250 0 0 -280z m299
220 c71 -20 105 -81 56 -100 -28 -11 -31 -26 -10 -54 13 -17 11 -23 -15 -62
-17 -23 -30 -45 -30 -47 0 -3 12 -8 28 -12 37 -9 82 -54 82 -81 0 -26 -60 -59
-127 -70 -67 -10 -213 35 -213 66 0 18 54 71 86 85 l34 14 -20 33 c-32 53 -33
58 -20 83 13 25 7 45 -15 45 -18 0 -27 28 -15 49 26 49 106 72 179 51z"/>
<path d="M156 457 c-17 -14 -26 -29 -22 -35 11 -18 26 -14 27 6 0 10 3 12 6 5
2 -7 12 -13 20 -13 10 0 13 6 9 16 -3 9 -3 21 1 27 4 7 9 3 13 -12 7 -31 33
-42 28 -13 -2 12 2 20 7 19 6 -1 9 -10 7 -20 -3 -27 21 -15 29 14 5 20 7 21
14 7 4 -9 4 -22 0 -28 -3 -5 1 -10 9 -10 9 0 16 6 16 13 1 7 6 5 14 -6 11 -13
16 -15 22 -6 4 8 -3 21 -20 36 -39 33 -138 33 -180 0z"/>
<path d="M180 387 c0 -10 17 -13 65 -13 45 1 65 5 65 14 0 8 -20 12 -65 12
-47 0 -65 -4 -65 -13z"/>
<path d="M208 353 c-35 -5 -40 -23 -20 -64 15 -30 22 -34 57 -34 36 0 42 3 59
38 10 22 15 42 10 47 -12 10 -73 18 -106 13z"/>
<path d="M174 210 c-47 -22 -79 -54 -69 -70 5 -9 69 -40 82 -40 2 0 1 16 -3
36 -8 41 10 63 66 81 l35 11 -35 0 c-19 0 -53 -8 -76 -18z"/>
<path d="M285 207 c-63 -19 -80 -34 -83 -71 -3 -39 -3 -39 63 -36 43 2 125 33
125 48 0 12 -44 52 -57 52 -6 0 -13 4 -15 8 -1 4 -16 4 -33 -1z m-35 -62 c0
-16 -6 -25 -16 -25 -11 0 -14 5 -10 16 3 9 6 20 6 25 0 5 5 9 10 9 6 0 10 -11
10 -25z"/>
</g>
</svg>
